<svg xmlns="http://www.w3.org/2000/svg" width="1600" height="900" viewBox="0 0 1600 900" role="img" aria-labelledby="title desc">
  <title id="title">Layered AI agent framework stack</title>
  <desc id="desc">Five numbered horizontal layers show model access, SDK or framework, orchestration, tools, and operations.</desc>
  <rect width="1600" height="900" fill="#FCFCFA"/>
  <rect x="48" y="48" width="1504" height="804" rx="16" fill="#F5F7FB" stroke="#111312" stroke-opacity="0.12"/>
  <rect x="48" y="48" width="1504" height="72" rx="16" fill="#FFFFFF"/>
  <path d="M48 120h1504" stroke="#111312" stroke-opacity="0.12"/>
  <text x="88" y="93" fill="#687170" font-family="IBM Plex Mono, monospace" font-size="20" letter-spacing="3">FIG. 03 / STACK MAP</text>
  <text x="1450" y="93" text-anchor="end" fill="#1E3A8A" font-family="IBM Plex Mono, monospace" font-size="20" font-weight="700" letter-spacing="3">DALI</text>
  <g transform="translate(175 175)">
    <rect x="0" y="0" width="1250" height="112" rx="16" fill="#FFFFFF" stroke="#111312" stroke-opacity="0.14"/>
    <rect x="0" y="132" width="1250" height="112" rx="16" fill="#E9EDFF" stroke="#1E3A8A" stroke-opacity="0.3"/>
    <rect x="0" y="264" width="1250" height="112" rx="16" fill="#FFFFFF" stroke="#111312" stroke-opacity="0.14"/>
    <rect x="0" y="396" width="1250" height="112" rx="16" fill="#E9EDFF" stroke="#1E3A8A" stroke-opacity="0.3"/>
    <rect x="0" y="528" width="1250" height="112" rx="16" fill="#111312"/>
    <g font-family="IBM Plex Mono, monospace" font-size="30" font-weight="700" text-anchor="middle">
      <circle cx="70" cy="56" r="30" fill="#E9EDFF"/><text x="70" y="66" fill="#1E3A8A">1</text>
      <circle cx="70" cy="188" r="30" fill="#FFFFFF"/><text x="70" y="198" fill="#1E3A8A">2</text>
      <circle cx="70" cy="320" r="30" fill="#E9EDFF"/><text x="70" y="330" fill="#1E3A8A">3</text>
      <circle cx="70" cy="452" r="30" fill="#FFFFFF"/><text x="70" y="462" fill="#1E3A8A">4</text>
      <circle cx="70" cy="584" r="30" fill="#E9EDFF"/><text x="70" y="594" fill="#1E3A8A">5</text>
    </g>
    <g stroke="#1E3A8A" stroke-width="8" stroke-linecap="round">
      <path d="M145 56h220M405 56h140M585 56h220M845 56h260"/>
      <path d="M145 188h300M485 188h180M705 188h400"/>
      <path d="M145 320h210M395 320h290M725 320h380"/>
      <path d="M145 452h230M415 452h150M605 452h250M895 452h210"/>
    </g>
    <g stroke="#FFFFFF" stroke-width="8" stroke-linecap="round">
      <path d="M145 584h250M435 584h170M645 584h210M895 584h210"/>
    </g>
    <g fill="#2F7D68">
      <circle cx="1140" cy="56" r="14"/><circle cx="1140" cy="188" r="14"/><circle cx="1140" cy="320" r="14"/><circle cx="1140" cy="452" r="14"/><circle cx="1140" cy="584" r="14"/>
    </g>
    <path d="M1184 56h40M1184 188h40M1184 320h40M1184 452h40M1184 584h40" stroke="#2F7D68" stroke-width="8" stroke-linecap="round"/>
  </g>
</svg>
